<svg id="Layer_1" data-name="Layer 1" xmlns="http://www.w3.org/2000/svg" xmlns:xlink="http://www.w3.org/1999/xlink" viewBox="0 0 198.43 141.73"><defs><style>.cls-1{fill:#804895;}.cls-2{fill:#a365a5;}.cls-3{fill:#dc99c3;}.cls-4{fill:url(#radial-gradient);}.cls-5{fill:url(#radial-gradient-2);}.cls-6{fill:url(#radial-gradient-3);}.cls-7{fill:url(#radial-gradient-4);}.cls-8{fill:url(#radial-gradient-5);}.cls-9{fill:url(#radial-gradient-6);}.cls-10{fill:url(#radial-gradient-7);}</style><radialGradient id="radial-gradient" cx="182.51" cy="66.39" r="1.84" gradientUnits="userSpaceOnUse"><stop offset="0" stop-color="#dc99c3"/><stop offset="0.03" stop-color="#d895c1"/><stop offset="0.43" stop-color="#a365a5"/><stop offset="1" stop-color="#804895"/></radialGradient><radialGradient id="radial-gradient-2" cx="184.68" cy="65.68" r="3.76" xlink:href="#radial-gradient"/><radialGradient id="radial-gradient-3" cx="186.73" cy="65.01" r="5.58" xlink:href="#radial-gradient"/><radialGradient id="radial-gradient-4" cx="162.47" cy="73.27" r="1.84" xlink:href="#radial-gradient"/><radialGradient id="radial-gradient-5" cx="160.3" cy="73.98" r="3.76" xlink:href="#radial-gradient"/><radialGradient id="radial-gradient-6" cx="158.25" cy="74.65" r="5.58" xlink:href="#radial-gradient"/><radialGradient id="radial-gradient-7" cx="173.25" cy="70.43" r="5.47" xlink:href="#radial-gradient"/></defs><path class="cls-1" d="M73.36,83.47H64.18l-.85-22.39h4.4V79.43l5.76-.74Z"/><path class="cls-2" d="M35.33,84.34l-1-6.8H30l-.79,5.19-4.78,0,5.81-21.14,4.68-.56,5,21.58Zm-1.7-10L32.15,66l-1.46,8.38Z"/><path class="cls-1" d="M20.1,84.38,19.41,70.3l-1,4.17c-.25,1.15-.49,2.3-.69,3.46l-.21,1.12c-.23,1.24-.48,2.47-.78,3.69l-2,.18c-.26-1-.49-2.11-.7-3.17-.25-1.23-.53-2.46-.84-3.68l-1-3.79-.59,12.1L8,84.08l.35-22.52,4.49-.48,2.73,12.6L18.81,61.2l4.62.37.46,22.51Z"/><path class="cls-3" d="M51.53,97h-.27a5.15,5.15,0,0,1-1.63-.29,14.34,14.34,0,0,1-5.05-3.26L46,86.38a9.06,9.06,0,0,0,1.8,1.19,3.82,3.82,0,0,0,1.7.43l.61,0c.34,0,.74-.35,1.19-1a5.07,5.07,0,0,0,.7-1.87,7.81,7.81,0,0,0,.16-1.5A6.9,6.9,0,0,0,52,81.93a3.38,3.38,0,0,0-3.46-2.59l-.06-3.81a4.61,4.61,0,0,0,1.87-.9,3.69,3.69,0,0,0,1.26-2.22,6.67,6.67,0,0,0,.08-1A5.6,5.6,0,0,0,51.47,70a4.45,4.45,0,0,0-1-2,1.71,1.71,0,0,0-1.17-.51q-1.5,0-3.64,2.51l-1.58-5.65a14.06,14.06,0,0,1,3.22-3A7.09,7.09,0,0,1,50,60.28a3.23,3.23,0,0,1,.61-.06,3.92,3.92,0,0,1,2.14.66,7.11,7.11,0,0,1,2.43,3.34,11.56,11.56,0,0,1,.88,4.37,10.79,10.79,0,0,1-.59,3.55,9.79,9.79,0,0,1-1.68,3l-1.06,1.33,1.08,1.23a10.62,10.62,0,0,1,1.81,3A13.67,13.67,0,0,1,56.55,85c0,.33,0,.65,0,1a17.2,17.2,0,0,1-.41,3.74,15.79,15.79,0,0,1-1.24,3.6,14,14,0,0,1-1.84,2.9A2.16,2.16,0,0,1,51.53,97Z"/><path class="cls-1" d="M81.09,83.19h-.18a7.45,7.45,0,0,1-2.63-.49,6.67,6.67,0,0,1-3.39-2.86A14,14,0,0,1,73,72.42,18.5,18.5,0,0,1,73.87,67a14.28,14.28,0,0,1,1.53-3.34,8.67,8.67,0,0,1,2.4-2.53A6.2,6.2,0,0,1,81.31,60q.3,0,.6,0a6,6,0,0,1,3.7,1.6,8.69,8.69,0,0,1,2,3.07,16.54,16.54,0,0,1,1.06,6.08A19.64,19.64,0,0,1,88,76.15a14.43,14.43,0,0,1-1.58,3.58,7.9,7.9,0,0,1-2.55,2.62A5.58,5.58,0,0,1,81.09,83.19Zm-.61-4.86h.27a2.85,2.85,0,0,0,1.8-1.16,7.77,7.77,0,0,0,1.15-2.22,12.31,12.31,0,0,0,.68-3.89A15.33,15.33,0,0,0,84.2,69a4.31,4.31,0,0,0-1.28-2.4,3.07,3.07,0,0,0-.86-.59,2.64,2.64,0,0,0-1-.21,2.35,2.35,0,0,0-.52,0,3.07,3.07,0,0,0-1.76,1.25,7.69,7.69,0,0,0-1.07,2.21,11.21,11.21,0,0,0-.56,3.42,14.8,14.8,0,0,0,.17,2,5.3,5.3,0,0,0,1,2.28,3.9,3.9,0,0,0,1.09,1A2.09,2.09,0,0,0,80.48,78.33Z"/><path class="cls-2" d="M101.69,84.38,101,70.3l-1,4.17c-.26,1.15-.49,2.3-.69,3.46l-.22,1.12q-.33,1.86-.78,3.69l-2,.18c-.26-1-.49-2.11-.71-3.17-.25-1.23-.52-2.46-.83-3.68l-1-3.79-.6,12.1-3.68-.3.36-22.52,4.49-.48,2.73,12.6L100.4,61.2l4.62.37.46,22.51Z"/><path class="cls-2" d="M117.36,84.34l-1-6.8h-4.48l-.81,5.19-4.88,0,5.93-21.14,4.77-.56L122,82.66Zm-1.74-10L114.12,66l-1.5,8.38Z"/><path class="cls-2" d="M132.71,83.18h-6.49L127.39,65l-6.8,1-.19-4.84h18.14l-.06,4.79L131.54,65Z"/><path class="cls-1" d="M156.14,83.47h-5.35L145.3,73.14l-.14,9.5h-4.44l-1.05-21.56h5.48L145,72.27l5.75-10.41h5.31L150.3,72Z"/><path class="cls-4" d="M181.46,64.14a.3.3,0,0,0,.12.34A3.41,3.41,0,0,1,183,68.4a.3.3,0,0,0,.12.34.19.19,0,0,0,.16,0,.2.2,0,0,0,.12-.12A4,4,0,0,0,181.74,64,.19.19,0,0,0,181.46,64.14Z"/><path class="cls-5" d="M182.92,60.8a.19.19,0,0,0-.28.1.3.3,0,0,0,.12.34,7.82,7.82,0,0,1,3.13,9,.3.3,0,0,0,.12.34.18.18,0,0,0,.16,0,.2.2,0,0,0,.12-.12,8.45,8.45,0,0,0-3.37-9.66Z"/><path class="cls-6" d="M184,57.73a.18.18,0,0,0-.28.1.3.3,0,0,0,.12.34,12,12,0,0,1,4.79,13.77.3.3,0,0,0,.12.34.16.16,0,0,0,.16,0,.16.16,0,0,0,.12-.11,12.63,12.63,0,0,0-5-14.46Z"/><path class="cls-7" d="M161.93,70.91a.18.18,0,0,0-.28.09,4,4,0,0,0,1.58,4.62.17.17,0,0,0,.27-.09.3.3,0,0,0-.12-.35A3.41,3.41,0,0,1,162,71.25.29.29,0,0,0,161.93,70.91Z"/><path class="cls-8" d="M159,69.09a.19.19,0,0,0-.28.1,8.41,8.41,0,0,0,3.33,9.67.16.16,0,0,0,.16,0,.18.18,0,0,0,.12-.11.31.31,0,0,0-.12-.35,7.84,7.84,0,0,1-3.1-9A.3.3,0,0,0,159,69.09Z"/><path class="cls-9" d="M156.39,75.42a11.59,11.59,0,0,1-.06-7.71.29.29,0,0,0-.11-.34.18.18,0,0,0-.28.1,12.64,12.64,0,0,0,5,14.47.18.18,0,0,0,.16,0,.2.2,0,0,0,.12-.12.3.3,0,0,0-.12-.34A11.53,11.53,0,0,1,156.39,75.42Z"/><path class="cls-10" d="M174,67.81c.52,1.51,1,2.86,1.6,4.16h0a37.79,37.79,0,0,0-2.39-3l-2.79-3.18-1.93.67L172,76.52,173.5,76l-1.05-3c-.58-1.65-1.09-3.07-1.6-4.39l0,0c.77,1.06,1.69,2.2,2.5,3.13L176.29,75l1.73-.6-3.51-10.1-1.51.52Z"/></svg>